<svg xmlns="http://www.w3.org/2000/svg" width="454.882" height="378.442" viewBox="0 0 454.882 378.442">
  <g id="Layer_2" data-name="Layer 2" transform="translate(0.999 0.972)">
    <path id="Path_606" data-name="Path 606" d="M705.11,217.376c1.169-1.708.784-6.112-.756-7.253-1.82-1.351-6.217-.7-8.366-.7-1.694,0-3.857-.049-5.041,1.848a8.232,8.232,0,0,0-.742,4.292" transform="translate(-612.794 -205.26)" fill="none" stroke="#442257" stroke-linecap="round" stroke-linejoin="round" stroke-width="2"/>
    <path id="Path_607" data-name="Path 607" d="M702.05,208.407c4,.147,4.271-1.708,3.5-3.1-1.274-2.317-5.643-1.687-11.167-1.673-10.62.035-7.512,4.593-6.154,5.356" transform="translate(-610.49 -203.544)" fill="none" stroke="#442257" stroke-linecap="round" stroke-linejoin="round" stroke-width="2"/>
    <path id="Path_608" data-name="Path 608" d="M664.869,240.835a17.194,17.194,0,0,1,8.765-4.859c1.519-1.9,2.982-4.033,3.906-5.209,7.281-9.262,19.771-15.4,31.959-13.708,9.227,1.3,18.958,7.134,21.787,16.1,1.211,3.83,1.54,8.072-.182,11.8-1.071,2.324-3.878,8.457-9.717,9.8a76.364,76.364,0,0,0-2.849-7.162h0c-5.853,3.164-16.214,1.75-19.329-2.8-.581,6.3-9.563,4.474-14.177,3.346,0,2.583-2.555,5.6-4.614,7A13.145,13.145,0,0,1,677.8,256.5h0c.623,2.45,1.491,5.055,2.471,7.736-7.162,1.764-16.1-3.6-17.992-12.112C661.453,248.318,662.328,243.712,664.869,240.835Z" transform="translate(-619.557 -207.513)" fill="#abdddf" stroke="#abdddf" stroke-linecap="round" stroke-linejoin="round" stroke-width="2"/>
    <path id="Path_609" data-name="Path 609" d="M602.367,422.581c-2.38-4.824-4.347-12-9.367-14.331" transform="translate(-441.337 -264.938)" fill="none" stroke="#442257" stroke-linecap="round" stroke-linejoin="round" stroke-width="2"/>
    <path id="Path_610" data-name="Path 610" d="M543.9,375.76a55.941,55.941,0,0,1,17.684,3.178c9.689,3.549,19.883,12.721,26.6,20.3,7.19,8.142,18.314,17.215,21.773,19.133" transform="translate(-414.556 -255.193)" fill="none" stroke="#442257" stroke-linecap="round" stroke-linejoin="round" stroke-width="2"/>
    <path id="Path_611" data-name="Path 611" d="M199,700.76c2.646,9.64,8.45,28.375,8.45,28.375H218.6s-1.722-18.986-2.674-28.228" transform="translate(218.262 -352.665)" fill="none" stroke="#442257" stroke-linecap="round" stroke-linejoin="round" stroke-width="2"/>
    <path id="Path_612" data-name="Path 612" d="M436.759,700.223c-2.646,9.64-8.45,28.375-8.45,28.375H417.15s1.715-20.387,2.674-29.628" transform="translate(-152.619 -352.128)" fill="none" stroke="#442257" stroke-linecap="round" stroke-linejoin="round" stroke-width="2"/>
    <path id="Path_613" data-name="Path 613" d="M351.8,700.76c-1.232,8.6-2.982,28.375-2.982,28.375h11.117c1.267-5.5,8.793-28.375,8.793-28.375" transform="translate(-36.753 -352.665)" fill="none" stroke="#442257" stroke-linecap="round" stroke-linejoin="round" stroke-width="2"/>
    <path id="Path_614" data-name="Path 614" d="M757.3,697.76c-2.646,9.64-9.157,30.475-9.157,30.475H737s1.715-20.387,2.667-29.628" transform="translate(-697.086 -351.765)" fill="none" stroke="#442257" stroke-linecap="round" stroke-linejoin="round" stroke-width="2"/>
    <path id="Path_615" data-name="Path 615" d="M562.055,697.76c1.232,8.6,3.682,30.475,3.682,30.475H554.62c-1.267-5.5-9.5-30.475-9.5-30.475" transform="translate(-371.188 -351.765)" fill="none" stroke="#442257" stroke-linecap="round" stroke-linejoin="round" stroke-width="2"/>
    <path id="Path_616" data-name="Path 616" d="M191.244,393.7c7.372-2.884,18.335-3.031,28.522-3.031h.49c.252,2.268.616,4.7.889,7.288,2.184,20.576,10.144,41.69,16.655,61.272v.553H366.77c6.1-.364,14.17.329,18.615,5.1,3.941,4.2,2.135,11.04,1.778,16.571-.651,10.081-2.415,20.24-3.962,30.293l-.826,5.223c4.249.812,5.209,6.3,10.123,6.252,3.283,0,4.768-2.709,7.659-3.451,9.171-2.345,12.182,9.339,20.506,8.52,4.628-.448,6.476-2.912,11.586.392,1.638,1.064,3.3,4.257,4.67,4.9,1.764.8,28.165,2.149,33.093,2.744,1.722.21,5.524-.112,7-1.4s2.919-9.171,3.752-17.159,3.64-18.265,14.366-18.8,36.195-1.547,55.307.3c22.186,2.149,77.332-9.521,78.172,25.847.455,18.853.973,38.141-2.184,56.868-1,5.979-2.345,15.01-6.609,20.534a13.016,13.016,0,0,1-3.5,3.192c-4.9,3.01-12.175,1.841-17.586,1.841H564.958c-34.563,0-68.035-.462-102.591-.252a47.9,47.9,0,0,1-14.947-1.953H219.514c-12.224,0-14.191-13.078-17.5-24.818-5.237-18.405-7.414-37.5-10.256-56.441-2.457-16.375-5.195-33.072-8.926-49.188-4-17.264-4.859-34.612-6.616-52.192C174.89,409.572,178.391,398.707,191.244,393.7Z" transform="translate(-175.952 -259.665)" fill="#fab550" stroke="#fab550" stroke-linecap="round" stroke-linejoin="round" stroke-width="2"/>
    <g id="Group_21" data-name="Group 21" transform="translate(76.732 67.381)" opacity="0.4">
      <line id="Line_118" data-name="Line 118" x1="2.751" y2="3.857" transform="translate(26.456 3.857)" fill="none" stroke="#f15d4a" stroke-linecap="round" stroke-linejoin="round" stroke-width="2"/>
      <line id="Line_119" data-name="Line 119" x1="6.616" y2="9.094" transform="translate(18.461 0.546)" fill="none" stroke="#f15d4a" stroke-linecap="round" stroke-linejoin="round" stroke-width="2"/>
      <line id="Line_120" data-name="Line 120" x1="6.889" y2="9.92" transform="translate(12.672)" fill="none" stroke="#f15d4a" stroke-linecap="round" stroke-linejoin="round" stroke-width="2"/>
      <line id="Line_121" data-name="Line 121" x1="6.896" y2="10.746" transform="translate(5.23 0.273)" fill="none" stroke="#f15d4a" stroke-linecap="round" stroke-linejoin="round" stroke-width="2"/>
      <line id="Line_122" data-name="Line 122" x1="4.131" y2="6.889" transform="translate(0 1.925)" fill="none" stroke="#f15d4a" stroke-linecap="round" stroke-linejoin="round" stroke-width="2"/>
    </g>
    <path id="Path_617" data-name="Path 617" d="M566.966,483.857c2.1-6.476-5.006-17.6-12.6-20.961-8.541-3.759-22.046-9.1-31.8-8.31h0" transform="translate(-357 -278.811)" fill="none" stroke="#442257" stroke-linecap="round" stroke-linejoin="round" stroke-width="2"/>
    <path id="Path_618" data-name="Path 618" d="M327.88,438.553v-.189c4.95-13.015,36.8-8.079,46.906-6.385,21.318,3.577,38.5,18.9,59.942,25.014,3.78,1.085,17.859,2.1,26.442,6.854h0c2.387,0,4.754.259,7.057.371,7.638.371,16.914,2.5,23.348,3.353a104.236,104.236,0,0,1,14.639,0c4.3.2,29.838,3.073,29.838,3.073-5.328,1.4-9.381,7-11.552,12.371-2.982,7.323-4.2,17.866-3.682,25.9v1.148c-4.9.147-9.164.343-12.21.5-10.725.539-13.533,10.809-14.366,18.8s-2.219,15.787-3.752,17.159-5.272,1.638-7,1.4c-4.9-.595-31.329-1.946-33.093-2.744-1.4-.623-3.031-3.815-4.67-4.9-5.111-3.3-6.959-.84-11.586-.392-8.324.819-11.334-10.865-20.506-8.52-2.891.742-4.376,3.431-7.659,3.451-4.9,0-5.895-5.3-10.144-6.112" transform="translate(-189.414 -271.353)" fill="none" stroke="#442257" stroke-linecap="round" stroke-linejoin="round" stroke-width="2"/>
    <path id="Path_619" data-name="Path 619" d="M678.191,611.954c1.267-10.5,9.3-58.3,11.2-70.709,1.547-10.053,3.311-20.211,3.963-30.293.357-5.531,2.163-12.343-1.778-16.571-4.446-4.768-12.511-5.461-18.615-5.1H535.184c-13.491,0-13.631,17.81-14.877,26.456" transform="translate(-482.157 -289.216)" fill="none" stroke="#442257" stroke-linecap="round" stroke-linejoin="round" stroke-width="2"/>
    <path id="Path_620" data-name="Path 620" d="M739.289,451.477c-6.511-19.6-14.471-40.7-16.655-61.272-1.2-11.32-4.123-19.918,8.4-23.04a88.917,88.917,0,0,1,17.5-2.219" transform="translate(-677.441 -251.948)" fill="none" stroke="#442257" stroke-linecap="round" stroke-linejoin="round" stroke-width="2"/>
    <path id="Path_621" data-name="Path 621" d="M581.636,397.23c2.632,8.842,11.761,15.829,2.569,24.72,7.477-5.489,15.213-.343,15.038,9.311,1.491-7.113,15.948-3.689,20.457-3.276,9.43.861,18.321.805,27.247,3.892,6.938,2.4,12.2,3.85,13.232,11.376.588,4.278,2.149,13.5-.273,16.8" transform="translate(-492.232 -261.633)" fill="none" stroke="#442257" stroke-linecap="round" stroke-linejoin="round" stroke-width="2"/>
    <path id="Path_622" data-name="Path 622" d="M725.9,442.263a9.557,9.557,0,0,0-2.2-.553" transform="translate(-656.37 -274.973)" fill="none" stroke="#442257" stroke-linecap="round" stroke-linejoin="round" stroke-width="2"/>
    <path id="Path_623" data-name="Path 623" d="M702.84,426.93a15.733,15.733,0,0,1,2.1-1.26" transform="translate(-620.808 -270.162)" fill="none" stroke="#442257" stroke-linecap="round" stroke-linejoin="round" stroke-width="2"/>
    <path id="Path_624" data-name="Path 624" d="M711.766,414.893a4.7,4.7,0,0,1-1.106-2.583" transform="translate(-633.109 -266.155)" fill="none" stroke="#442257" stroke-linecap="round" stroke-linejoin="round" stroke-width="2"/>
    <path id="Path_625" data-name="Path 625" d="M743.965,393.372a2.8,2.8,0,0,1-2.205-1.652" transform="translate(-687.081 -259.98)" fill="none" stroke="#442257" stroke-linecap="round" stroke-linejoin="round" stroke-width="2"/>
    <path id="Path_626" data-name="Path 626" d="M733.88,381.009v-1.1" transform="translate(-671.479 -256.438)" fill="none" stroke="#442257" stroke-linecap="round" stroke-linejoin="round" stroke-width="2"/>
    <path id="Path_627" data-name="Path 627" d="M752.859,378.1a3.912,3.912,0,0,1-1.659-.546" transform="translate(-702.584 -255.73)" fill="none" stroke="#442257" stroke-linecap="round" stroke-linejoin="round" stroke-width="2"/>
    <path id="Path_628" data-name="Path 628" d="M747.108,427.868c-.952-.287-1.827-.168-2.2.553" transform="translate(-692.429 -270.778)" fill="none" stroke="#442257" stroke-linecap="round" stroke-linejoin="round" stroke-width="2"/>
    <path id="Path_629" data-name="Path 629" d="M718.33,397.73l1.337-1.75" transform="translate(-646.38 -261.258)" fill="none" stroke="#442257" stroke-linecap="round" stroke-linejoin="round" stroke-width="2"/>
    <path id="Path_630" data-name="Path 630" d="M726.2,477.831c3.36-10.34-5.167-12.931-13.239-13.659-9.8-.889-14.121-12.252-24.237-8.94" transform="translate(-632.941 -278.847)" fill="none" stroke="#442257" stroke-linecap="round" stroke-linejoin="round" stroke-width="2"/>
    <path id="Path_631" data-name="Path 631" d="M617.37,479.11a9.806,9.806,0,0,0,2.2.546" transform="translate(-475.6 -286.189)" fill="none" stroke="#442257" stroke-linecap="round" stroke-linejoin="round" stroke-width="2"/>
    <path id="Path_632" data-name="Path 632" d="M600.83,463.439a3.5,3.5,0,0,0,.553-1.659" transform="translate(-445.835 -280.992)" fill="none" stroke="#442257" stroke-linecap="round" stroke-linejoin="round" stroke-width="2"/>
    <path id="Path_633" data-name="Path 633" d="M612.64,456.115V453.91" transform="translate(-465.36 -278.632)" fill="none" stroke="#442257" stroke-linecap="round" stroke-linejoin="round" stroke-width="2"/>
    <path id="Path_634" data-name="Path 634" d="M644.13,467.3v1.652" transform="translate(-518.896 -282.647)" fill="none" stroke="#442257" stroke-linecap="round" stroke-linejoin="round" stroke-width="2"/>
    <path id="Path_635" data-name="Path 635" d="M672.868,463.309a3.059,3.059,0,0,0-2.758.553" transform="translate(-565.823 -281.415)" fill="none" stroke="#442257" stroke-linecap="round" stroke-linejoin="round" stroke-width="2"/>
    <path id="Path_636" data-name="Path 636" d="M686.959,445.526l-1.1-1.106" transform="translate(-590.94 -275.785)" fill="none" stroke="#442257" stroke-linecap="round" stroke-linejoin="round" stroke-width="2"/>
    <path id="Path_637" data-name="Path 637" d="M657.046,447.455a2.209,2.209,0,0,0-1.106-2.205" transform="translate(-540.08 -276.034)" fill="none" stroke="#442257" stroke-linecap="round" stroke-linejoin="round" stroke-width="2"/>
    <path id="Path_638" data-name="Path 638" d="M530.25,473.38c5.741-.056,16.172,6.749,16.536,13.078" transform="translate(-341.826 -284.471)" fill="none" stroke="#442257" stroke-linecap="round" stroke-linejoin="round" stroke-width="2"/>
    <path id="Path_639" data-name="Path 639" d="M646.165,366.8c10.753,7.442,20.156,20.4,25.462,32.281,7.274-1.26,17.047-1.652,24.783-2.065-1.617-10.305-13.708-25.581-21.927-31.427-5.412-3.85-11.1-1.778-17.453-.182-7.7,1.939-12.987,1.939-19.679-2.842-5.048-3.6-8-6.917-8.289-13.827-.259-6.245,3.654-7.911,9.507-7.442,7.6.609,15.99,3.983,23.719,5.517,6.693,1.323,12.426.105,18.9.546,6.721.462,10.13,9.367,9.1,16.011-1.218,7.848-5.489,4.936-11.271,5.482" transform="translate(-560.619 -244.836)" fill="none" stroke="#442257" stroke-linecap="round" stroke-linejoin="round" stroke-width="2"/>
    <path id="Path_640" data-name="Path 640" d="M655.8,424.84a12.532,12.532,0,0,1,1.855,4.313" transform="translate(-540.591 -269.913)" fill="none" stroke="#442257" stroke-linecap="round" stroke-linejoin="round" stroke-width="2"/>
    <path id="Path_641" data-name="Path 641" d="M648.152,428.957A15.063,15.063,0,0,0,646.5,424" transform="translate(-524.577 -269.661)" fill="none" stroke="#442257" stroke-linecap="round" stroke-linejoin="round" stroke-width="2"/>
    <path id="Path_642" data-name="Path 642" d="M637.47,422.52a31.841,31.841,0,0,1,2.037,6.945" transform="translate(-509.611 -269.217)" fill="none" stroke="#442257" stroke-linecap="round" stroke-linejoin="round" stroke-width="2"/>
    <path id="Path_643" data-name="Path 643" d="M629.05,422.31a28.936,28.936,0,0,1,1.876,4.726" transform="translate(-495.135 -269.154)" fill="none" stroke="#442257" stroke-linecap="round" stroke-linejoin="round" stroke-width="2"/>
    <path id="Path_644" data-name="Path 644" d="M316.653,544.279c-12.322,0-24.034,1.687-31.938.924-12.6-1.225-30.1-1.2-42.215-.882" transform="translate(89.757 -305.692)" fill="none" stroke="#442257" stroke-linecap="round" stroke-linejoin="round" stroke-width="2"/>
    <path id="Path_645" data-name="Path 645" d="M444.659,594.72c-1.015,13.2-1.232,35.487-1.246,48.579,0,8.884-.945,16.711,6.063,21.367" transform="translate(-183.692 -320.862)" fill="none" stroke="#442257" stroke-linecap="round" stroke-linejoin="round" stroke-width="2"/>
    <path id="Path_646" data-name="Path 646" d="M372.593,653.531c-1.316-32.561-2.058-67.839,4.964-98.061" transform="translate(-61.618 -309.091)" fill="none" stroke="#442257" stroke-linecap="round" stroke-linejoin="round" stroke-width="2"/>
    <path id="Path_647" data-name="Path 647" d="M434.89,488c4.712-5.223,14.772-8.933,21.976-9.486" transform="translate(-185.145 -286.009)" fill="none" stroke="#442257" stroke-linecap="round" stroke-linejoin="round" stroke-width="2"/>
    <path id="Path_648" data-name="Path 648" d="M238.107,553.476a29.423,29.423,0,0,0-12.5-8.926" transform="translate(180.128 -305.816)" fill="none" stroke="#442257" stroke-linecap="round" stroke-linejoin="round" stroke-width="2"/>
    <path id="Path_649" data-name="Path 649" d="M255.725,552.4c-.6-2.471-4.824-7-7.085-7.526" transform="translate(146.387 -305.912)" fill="none" stroke="#442257" stroke-linecap="round" stroke-linejoin="round" stroke-width="2"/>
    <path id="Path_650" data-name="Path 650" d="M442.8,539.22c-27.373,0-34.822-.105-42.936,6.084-5.944,4.53-7.54,13.82-11.818,19.6" transform="translate(-138.291 -304.217)" fill="none" stroke="#442257" stroke-linecap="round" stroke-linejoin="round" stroke-width="2"/>
    <path id="Path_651" data-name="Path 651" d="M489.525,534.21c-3.36,5.188-5.188,17.684-10.725,22.081" transform="translate(-248.546 -302.714)" fill="none" stroke="#442257" stroke-linecap="round" stroke-linejoin="round" stroke-width="2"/>
    <path id="Path_652" data-name="Path 652" d="M505.228,516.11c-5.482,4.1-8.1,26.512-14.618,31.091" transform="translate(-272.516 -297.286)" fill="none" stroke="#442257" stroke-linecap="round" stroke-linejoin="round" stroke-width="2"/>
    <path id="Path_653" data-name="Path 653" d="M411.181,483.83c-7.659.763-14.7,3.57-19.721,9.213" transform="translate(-109.056 -287.605)" fill="none" stroke="#442257" stroke-linecap="round" stroke-linejoin="round" stroke-width="2"/>
    <path id="Path_654" data-name="Path 654" d="M300.126,553.456c-2.184-3.64-6.154-8.282-10.326-8.856" transform="translate(73.17 -305.831)" fill="none" stroke="#442257" stroke-linecap="round" stroke-linejoin="round" stroke-width="2"/>
    <path id="Path_655" data-name="Path 655" d="M722.317,273.44c1.939,7.645,6.245,16.732,9.038,25.4-4.242.07-13.211.588-11.943,7.246,1.036,5.461,9.934,5.636,14.121,5.6,1.211,2.8,3.15,9.269,3.15,9.269" transform="translate(-664.067 -224.506)" fill="none" stroke="#442257" stroke-linecap="round" stroke-linejoin="round" stroke-width="2"/>
    <path id="Path_656" data-name="Path 656" d="M673.016,322.394s-4.264-12.4-5.853-19.042c-1.75-7.323-4.523-14.324-7-21.444-2.191-6.406-4.264-14.45-7.372-21.108" transform="translate(-553.844 -220.716)" fill="none" stroke="#442257" stroke-linecap="round" stroke-linejoin="round" stroke-width="2"/>
    <path id="Path_657" data-name="Path 657" d="M725.738,255.19c-2.891,7.645-18.972,7-22.984,1.092-.581,6.3-9.563,4.474-14.177,3.346,0,2.583-2.555,5.6-4.614,7a11.9,11.9,0,0,1-7.554,2.1" transform="translate(-623.103 -219.033)" fill="none" stroke="#442257" stroke-linecap="round" stroke-linejoin="round" stroke-width="2"/>
    <line id="Line_123" data-name="Line 123" x1="1.106" y1="3.031" transform="translate(101.529 63.117)" fill="none" stroke="#442257" stroke-linecap="round" stroke-linejoin="round" stroke-width="2"/>
    <path id="Path_658" data-name="Path 658" d="M545,456.67c-1.6,1.043-3.906,2.184-3.584,4.411" transform="translate(-347.844 -279.459)" fill="none" stroke="#442257" stroke-linecap="round" stroke-linejoin="round" stroke-width="2"/>
    <path id="Path_659" data-name="Path 659" d="M561.819,448.79c-1.442.959-7.2,4.621-5.51,5.79" transform="translate(-374.886 -277.096)" fill="none" stroke="#442257" stroke-linecap="round" stroke-linejoin="round" stroke-width="2"/>
    <line id="Line_124" data-name="Line 124" x1="1.099" y1="3.031" transform="translate(83.005 64.629)" fill="none" stroke="#442257" stroke-linecap="round" stroke-linejoin="round" stroke-width="2"/>
    <path id="Path_660" data-name="Path 660" d="M616.838,308.3s11.279-8.737,16.669-12.644c4.95-3.584,9.8-7.463,14.7-11.012,2.1,4.06,7.148-.091,5.1-4.109-2.758-5.426-9.192.273-5.1,4.109" transform="translate(-509.449 -225.965)" fill="#f15d4a" stroke="#f15d4a" stroke-linecap="round" stroke-linejoin="round" stroke-width="2"/>
    <path id="Path_661" data-name="Path 661" d="M687.551,319.894s-1.687,3.213-3.248,3.423c-2.331.287-5.517-5.272-7.61-3.5-1.253,1.05.7,3.325-.035,4.39-1.4,1.876-3.76-1.316-4.669-2.331-1.869-2.1-5.216-5.125-6.938-1.8-1.064,2.065.315,3.781-3.291,3.269" transform="translate(-574.66 -238.049)" fill="none" stroke="#442257" stroke-linecap="round" stroke-linejoin="round" stroke-width="2"/>
    <path id="Path_662" data-name="Path 662" d="M620.985,260.268a10.8,10.8,0,0,0-.091-8.555c-1.148-2.639,1.2-5.314.63-8.023" transform="translate(-480.097 -215.584)" fill="none" stroke="#442257" stroke-linecap="round" stroke-linejoin="round" stroke-width="2"/>
    <path id="Path_663" data-name="Path 663" d="M630.72,265.441a10.27,10.27,0,0,0-.567-6.427,6.048,6.048,0,0,1,.231-4.635" transform="translate(-495.726 -218.79)" fill="none" stroke="#442257" stroke-linecap="round" stroke-linejoin="round" stroke-width="2"/>
    <path id="Path_664" data-name="Path 664" d="M612.366,265.107c1.246-2.478.2-4.957-.4-7.134a9.7,9.7,0,0,1,.231-5.363" transform="translate(-465.009 -218.259)" fill="none" stroke="#442257" stroke-linecap="round" stroke-linejoin="round" stroke-width="2"/>
    <path id="Path_665" data-name="Path 665" d="M706.006,387.341a4.25,4.25,0,0,0-1.876-1.071" transform="translate(-622.777 -258.346)" fill="none" stroke="#442257" stroke-linecap="round" stroke-linejoin="round" stroke-width="2"/>
    <path id="Path_666" data-name="Path 666" d="M715.044,374a2.94,2.94,0,0,0-1.344.805" transform="translate(-638.515 -254.666)" fill="none" stroke="#442257" stroke-linecap="round" stroke-linejoin="round" stroke-width="2"/>
    <path id="Path_667" data-name="Path 667" d="M735.265,412.5a16.353,16.353,0,0,0-2.415-1.337" transform="translate(-672.143 -265.81)" fill="none" stroke="#442257" stroke-linecap="round" stroke-linejoin="round" stroke-width="2"/>
    <path id="Path_668" data-name="Path 668" d="M685.628,410a12.6,12.6,0,0,1-2.948,1.876" transform="translate(-587.382 -265.462)" fill="none" stroke="#442257" stroke-linecap="round" stroke-linejoin="round" stroke-width="2"/>
    <path id="Path_669" data-name="Path 669" d="M675.6,421.307a5.064,5.064,0,0,1-1.337-1.337" transform="translate(-571.457 -268.453)" fill="none" stroke="#442257" stroke-linecap="round" stroke-linejoin="round" stroke-width="2"/>
    <path id="Path_670" data-name="Path 670" d="M612.787,418.82a3.969,3.969,0,0,1-1.337,1.071" transform="translate(-464.674 -268.108)" fill="none" stroke="#442257" stroke-linecap="round" stroke-linejoin="round" stroke-width="2"/>
    <path id="Path_671" data-name="Path 671" d="M617.078,412.231A1.2,1.2,0,0,0,616,411.16" transform="translate(-472.15 -265.81)" fill="none" stroke="#442257" stroke-linecap="round" stroke-linejoin="round" stroke-width="2"/>
    <path id="Path_672" data-name="Path 672" d="M632.7,401.2a3.82,3.82,0,0,1-1.344.539" transform="translate(-498.53 -262.823)" fill="none" stroke="#442257" stroke-linecap="round" stroke-linejoin="round" stroke-width="2"/>
    <path id="Path_673" data-name="Path 673" d="M635.846,387.987a4.2,4.2,0,0,0-.266-1.337" transform="translate(-504.626 -258.46)" fill="none" stroke="#442257" stroke-linecap="round" stroke-linejoin="round" stroke-width="2"/>
    <path id="Path_674" data-name="Path 674" d="M628.839,378.461c-.2-.924-.392-1.806-.539-2.681" transform="translate(-492.523 -255.199)" fill="none" stroke="#442257" stroke-linecap="round" stroke-linejoin="round" stroke-width="2"/>
    <path id="Path_675" data-name="Path 675" d="M607.541,380.75a4.256,4.256,0,0,1-1.071.805" transform="translate(-455.942 -256.69)" fill="none" stroke="#442257" stroke-linecap="round" stroke-linejoin="round" stroke-width="2"/>
    <path id="Path_676" data-name="Path 676" d="M598.731,400.1a5.024,5.024,0,0,1-1.071-.805" transform="translate(-440.964 -262.25)" fill="none" stroke="#442257" stroke-linecap="round" stroke-linejoin="round" stroke-width="2"/>
    <path id="Path_677" data-name="Path 677" d="M614.61,391.63a2.3,2.3,0,0,1-1.61.266" transform="translate(-467.582 -259.953)" fill="none" stroke="#442257" stroke-linecap="round" stroke-linejoin="round" stroke-width="2"/>
    <path id="Path_678" data-name="Path 678" d="M758.381,407.5a16.345,16.345,0,0,1-3.781-.5" transform="translate(-710.485 -264.563)" fill="none" stroke="#442257" stroke-linecap="round" stroke-linejoin="round" stroke-width="2"/>
    <path id="Path_679" data-name="Path 679" d="M703.9,460.871a4.388,4.388,0,0,0-.539-1.071" transform="translate(-620.131 -280.398)" fill="none" stroke="#442257" stroke-linecap="round" stroke-linejoin="round" stroke-width="2"/>
    <path id="Path_680" data-name="Path 680" d="M663.92,485.75l.8,1.078" transform="translate(-553.339 -288.181)" fill="none" stroke="#442257" stroke-linecap="round" stroke-linejoin="round" stroke-width="2"/>
    <path id="Path_681" data-name="Path 681" d="M650.51,482h2.681" transform="translate(-532.424 -287.056)" fill="none" stroke="#442257" stroke-linecap="round" stroke-linejoin="round" stroke-width="2"/>
    <path id="Path_682" data-name="Path 682" d="M636.649,446.09a1.638,1.638,0,0,0-1.071-1.61" transform="translate(-505.429 -275.803)" fill="none" stroke="#442257" stroke-linecap="round" stroke-linejoin="round" stroke-width="2"/>
    <path id="Path_683" data-name="Path 683" d="M599.85,449.461l.805-1.071" transform="translate(-444.421 -276.976)" fill="none" stroke="#442257" stroke-linecap="round" stroke-linejoin="round" stroke-width="2"/>
    <path id="Path_684" data-name="Path 684" d="M588.85,480.48a6.888,6.888,0,0,0,1.344,1.61" transform="translate(-426.259 -286.6)" fill="none" stroke="#442257" stroke-linecap="round" stroke-linejoin="round" stroke-width="2"/>
    <path id="Path_685" data-name="Path 685" d="M583.571,470.52a16.234,16.234,0,0,0-2.681.539" transform="translate(-414.064 -283.613)" fill="none" stroke="#442257" stroke-linecap="round" stroke-linejoin="round" stroke-width="2"/>
    <path id="Path_686" data-name="Path 686" d="M559.68,423.607a4.612,4.612,0,0,0,1.344-1.337" transform="translate(-376.668 -269.142)" fill="none" stroke="#442257" stroke-linecap="round" stroke-linejoin="round" stroke-width="2"/>
    <path id="Path_687" data-name="Path 687" d="M583.066,423.949a2.339,2.339,0,0,1-1.876-.539" transform="translate(-413.769 -269.484)" fill="none" stroke="#442257" stroke-linecap="round" stroke-linejoin="round" stroke-width="2"/>
    <path id="Path_688" data-name="Path 688" d="M582.34,411.233a5.78,5.78,0,0,0,.539-1.6" transform="translate(-414.386 -265.352)" fill="none" stroke="#442257" stroke-linecap="round" stroke-linejoin="round" stroke-width="2"/>
    <path id="Path_689" data-name="Path 689" d="M290.763,514.275a112.3,112.3,0,0,0,10.585-32.064c1.148-6.924,5.881-27.913.14-33.254-14.142-13.148-24.916,37.8-26.33,46.955-.735,4.726-1.169,14.933,1.435,18.867" transform="translate(79.67 -276.5)" fill="none" stroke="#442257" stroke-linecap="round" stroke-linejoin="round" stroke-width="2"/>
    <path id="Path_690" data-name="Path 690" d="M239.766,516.908a105.117,105.117,0,0,0,10.585-30.8c1.148-6.5,5.881-26.2.14-31.21-14.135-12.336-24.909,35.466-26.33,44.063-.7,4.439-2.1,14.38.812,17.887" transform="translate(166.645 -278.32)" fill="none" stroke="#442257" stroke-linecap="round" stroke-linejoin="round" stroke-width="2"/>
    <path id="Path_691" data-name="Path 691" d="M234.51,472.887c1.869-5.552,8.268-12.322,13.827-15.815s13.435-4.481,15.22-4.166" transform="translate(148.448 -278.314)" fill="none" stroke="#442257" stroke-linecap="round" stroke-linejoin="round" stroke-width="2"/>
    <path id="Path_692" data-name="Path 692" d="M276.331,516.7c-3.2-1.8-7.953-4.9-9.521-7.7" transform="translate(113.06 -295.154)" fill="none" stroke="#442257" stroke-linecap="round" stroke-linejoin="round" stroke-width="2"/>
    <path id="Path_693" data-name="Path 693" d="M314.987,446.8c-11.656,2.646-22.207,16.34-27.443,26.491-1.974,3.822-1.225,8.051-.3,11.026s4.593,9.836,6.112,11.152" transform="translate(60.759 -276.499)" fill="none" stroke="#442257" stroke-linecap="round" stroke-linejoin="round" stroke-width="2"/>
  </g>
</svg>
